<?xml version="1.0" encoding="UTF-8"?>
<svg id="Layer_2" data-name="Layer 2" xmlns="http://www.w3.org/2000/svg" viewBox="0 0 449.38 79.56">
  <g id="Layer_1-2" data-name="Layer 1">
    <g>
      <path d="M76.09,3.6h9.89v24.09h-8.88c-1.77-9.73-11.95-13.67-20.54-15.6s-26.64-2.52-34.47,2.81c-4.26,2.9-4.86,8.36.49,10.37,6.11,2.29,17.16,2.34,23.96,3.18,15.84,1.95,43.1,3.57,44.5,24.47.95,14.11-11.79,20.66-23.53,23.64-15.69,3.98-30.92,2.48-46.09-2.71-1.69-.58-4.72-2.21-6.14-2.49-.74-.15-2.09.33-2.09,1.09v4.18H2.3v-27.9h9.51l.34.42c.81,12.66,15.7,16.81,26.11,18.52,8.36,1.37,23.73,1.5,30.81-3.77,4.64-3.45,3.91-9.88-1.54-12.07-7.55-3.03-22.49-3.28-31.1-4.41C23.15,45.69,3.45,43.93.38,27.7-2.32,13.36,9.75,6.16,21.63,2.77,37.64-1.8,54.39-.36,69.75,5.76c3.62,1.44,7.02,4.73,6.35-2.16Z"/>
      <path d="M223.43,4.74l.42-.34,34.25.14,48.13,43.69c.18-2.81.19-5.68.14-8.5-.11-5.87-.28-11.87-.53-17.73-.09-2.09.51-6.05-1.02-7.6-.44-.44-2.34-1.16-2.9-1.16h-10.02V4.61h41.34v8.62h-9.76c-.08,0-1.48.31-1.65.38-1.62.56-1.9,1.71-2.03,3.29-.42,4.91.23,10.08.27,14.96.13,14.44.17,28.84.5,43.25h-14.33l-55.41-49.7v38.17c0,.89,1.4,2.66,2.41,2.66h11.54v8.88h-40.57v-8.5l.38-.38h10.4c1.01,0,2.18-2.21,2.16-3.17V17.67c-.17-1.64-.93-3.19-2.54-3.8-.38-.15-2.37-.64-2.66-.64h-8.5V4.74Z"/>
      <path d="M155.92.12c24.65-1.4,55.62,9.27,56.87,38.08,2.35,54.04-103.63,55.28-105.52,2.81C106.31,14.14,132.67,1.44,155.92.12ZM156.94,10.52c-17.57,1.38-29.13,15.45-27.08,33.02,4.08,34.97,58.7,33.6,60.62-1.76,1.08-19.89-14.22-32.78-33.54-31.25Z"/>
      <path d="M390.04,4.61v8.62h-5.96c-1.02,0-1.86,1.57-1.16,2.43l16.88,20.39,17.22-20.05c.82-.97-.1-2.77-1.25-2.77h-6.21V4.61h39.81v8.62h-10.02c-2.48,0-4.39,1.77-5.97,3.42-9.23,9.65-17.5,20.86-26.67,30.64-.27.42-.4.82-.46,1.31-.39,3.21-.27,10.63,0,13.95.08.95.25,2.26.95,2.92.11.11,1.13.76,1.2.76h11.54v8.88h-48.18v-8.88h11.03c.15,0,1.34-.78,1.52-1.02.35-.48.57-1.55.63-2.16.46-4.66-.18-10.31-.19-15.02l-26.68-30.63c-1.58-1.79-4.78-4.18-7.23-4.18h-9.26V4.61h48.44Z"/>
    </g>
  </g>
</svg>